<svg id="Capa_1" enable-background="new 0 0 512 512" height="512" viewBox="0 0 512 512" width="512" xmlns="http://www.w3.org/2000/svg"><g><path d="m466 181c8.291 0 15-6.709 15-15v-45h16c8.291 0 15-6.709 15-15s-6.709-15-15-15h-31c-8.291 0-15 6.709-15 15v45h-30v-45c0-8.291-6.709-15-15-15h-45v-30h45c8.291 0 15-6.709 15-15v-31c0-8.291-6.709-15-15-15s-15 6.709-15 15v16h-45c-8.291 0-15 6.709-15 15v45h-30v-76c0-8.291-6.709-15-15-15s-15 6.709-15 15v76h-30v-76c0-8.291-6.709-15-15-15s-15 6.709-15 15v76h-30v-45c0-8.291-6.709-15-15-15h-45v-16c0-8.291-6.709-15-15-15s-15 6.709-15 15v31c0 8.291 6.709 15 15 15h45v30h-45c-8.291 0-15 6.709-15 15v45h-30v-45c0-8.291-6.709-15-15-15h-31c-8.291 0-15 6.709-15 15s6.709 15 15 15h16v45c0 8.291 6.709 15 15 15h45v30h-76c-8.291 0-15 6.709-15 15s6.709 15 15 15h76v30h-76c-8.291 0-15 6.709-15 15s6.709 15 15 15h76v30h-45c-8.291 0-15 6.709-15 15v45h-16c-8.291 0-15 6.709-15 15s6.709 15 15 15h31c8.291 0 15-6.709 15-15v-45h30v45c0 8.291 6.709 15 15 15h45v30h-45c-8.291 0-15 6.709-15 15v31c0 8.291 6.709 15 15 15s15-6.709 15-15v-16h45c8.291 0 15-6.709 15-15v-45h30v76c0 8.291 6.709 15 15 15s15-6.709 15-15v-76h30v76c0 8.291 6.709 15 15 15s15-6.709 15-15v-76h30v45c0 8.291 6.709 15 15 15h45v16c0 8.291 6.709 15 15 15s15-6.709 15-15v-31c0-8.291-6.709-15-15-15h-45v-30h45c8.291 0 15-6.709 15-15v-45h30v45c0 8.291 6.709 15 15 15h31c8.291 0 15-6.709 15-15s-6.709-15-15-15h-16v-45c0-8.291-6.709-15-15-15h-45v-30h76c8.291 0 15-6.709 15-15s-6.709-15-15-15h-76v-30h76c8.291 0 15-6.709 15-15s-6.709-15-15-15h-76v-30zm-105 165c0 8.291-6.709 15-15 15h-180c-8.291 0-15-6.709-15-15v-180c0-8.291 6.709-15 15-15h180c8.291 0 15 6.709 15 15z"/><path d="m181 181h150v150h-150z"/></g></svg>