<?xml version="1.0" encoding="UTF-8" standalone="no"?><!-- Generator: Gravit.io --><svg xmlns="http://www.w3.org/2000/svg" xmlns:xlink="http://www.w3.org/1999/xlink" style="isolation:isolate" viewBox="687 282 119 144.981" width="119pt" height="144.981pt"><defs><clipPath id="_clipPath_aFf7nqaVc6q2cjQLeyA5wPUyWAEE6sin"><rect x="687" y="282" width="119" height="144.981"/></clipPath></defs><g clip-path="url(#_clipPath_aFf7nqaVc6q2cjQLeyA5wPUyWAEE6sin)"><path d=" M 762.809 398.733 C 787.73 391.636 806 368.685 806 341.5 C 806 308.661 779.339 282 746.5 282 C 713.661 282 687 308.661 687 341.5 L 687 341.5 C 687 368.685 705.27 391.636 730.191 398.733 L 731.5 401 L 746.5 426.981 L 761.5 401 L 762.809 398.733 Z  M 716.5 341.5 C 716.5 324.943 729.943 311.5 746.5 311.5 C 763.057 311.5 776.5 324.943 776.5 341.5 C 776.5 358.057 763.057 371.5 746.5 371.5 C 729.943 371.5 716.5 358.057 716.5 341.5 L 716.5 341.5 Z " fill-rule="evenodd" fill="rgb(255,255,255)"/></g></svg>