<?xml version="1.0" encoding="UTF-8" standalone="no"?><!-- Generator: Gravit.io --><svg xmlns="http://www.w3.org/2000/svg" xmlns:xlink="http://www.w3.org/1999/xlink" style="isolation:isolate" viewBox="0 0.001 512 511.998" width="512pt" height="511.998pt"><defs><clipPath id="_clipPath_36JKx1w6hN0Vl4XeJiWxzpbyTXvG4X4X"><rect x="0" y="0.001" width="512" height="511.998"/></clipPath></defs><g clip-path="url(#_clipPath_36JKx1w6hN0Vl4XeJiWxzpbyTXvG4X4X)"><path d=" M 507.264 484.506 L 417.774 395.016 L 383.435 429.354 C 377.148 435.642 366.95 435.645 360.659 429.354 C 354.37 423.065 354.37 412.867 360.659 406.578 L 394.999 372.24 L 348.271 325.512 L 313.933 359.85 C 307.641 366.14 297.446 366.139 291.156 359.85 C 284.867 353.561 284.867 343.364 291.156 337.075 L 325.494 302.736 L 278.766 256.009 L 244.428 290.347 C 238.137 296.637 227.941 296.636 221.651 290.347 C 215.362 284.058 215.362 273.86 221.651 267.571 L 255.99 233.233 L 209.263 186.505 L 174.924 220.843 C 168.633 227.133 158.438 227.132 152.148 220.843 C 145.859 214.554 145.859 204.357 152.148 198.067 L 186.487 163.728 L 139.759 117 L 105.421 151.339 C 99.134 157.627 88.936 157.63 82.645 151.339 C 76.356 145.05 76.356 134.852 82.645 128.563 L 116.983 94.225 L 27.492 4.735 C 17.368 -5.392 0 1.811 0 16.122 L 0 495.894 C 0 504.789 7.211 511.999 16.105 511.999 L 495.877 511.999 C 510.174 511.999 517.403 494.645 507.264 484.506 L 507.264 484.506 Z  M 222.28 409.847 L 132.22 409.847 C 115.64 409.847 102.152 396.358 102.152 379.778 L 102.152 289.718 C 102.152 262.982 134.563 249.534 153.482 268.457 L 243.541 358.517 C 262.449 377.423 249.036 409.847 222.28 409.847 L 222.28 409.847 Z " fill="rgb(255,255,255)"/></g></svg>