<svg width="503" height="410" viewBox="0 0 503 410" fill="none" xmlns="http://www.w3.org/2000/svg">
<path d="M212.6 278.6H31.9001C10.8001 278.6 -3.3999 258.8 1.1001 239.9C4.4001 253.8 16.9002 264.2 31.8002 264.2H209.8L212.6 278.6Z" fill="white"/>
<path d="M209.7 264.101H31.8002C16.9002 264.101 4.4001 253.701 1.1001 239.801C1.8001 236.901 2.90012 234.001 4.50012 231.301L36.7001 175.001L120.4 164.001L209.7 264.101Z" fill="white"/>
<path d="M314.8 264.101L311.9 278.601H220.1L217.5 264.101H314.8Z" fill="white"/>
<path d="M447 141.001C446.4 139.901 445.7 138.801 444.9 137.801C439 129.801 429.6 125.001 419.5 125.001H417.2L333.3 136.001C320.6 155.901 300.9 170.901 277.6 177.501L251 225.901L224.2 177.501C209.4 173.301 196.1 165.701 185.1 155.501L127.2 163.101L217.4 264.001L217.5 264.101H314.8L314.9 264.001L456.4 157.301L447 141.001Z" fill="white"/>
<path d="M179.9 151.301L122.6 158.801L115.6 159.701L40.3003 169.601L56.1002 142.001C56.7002 140.901 57.4002 139.801 58.2002 138.801C64.1002 130.801 73.5002 126.001 83.6002 126.001H162.9C167.1 135.401 172.9 143.901 179.9 151.301Z" fill="white"/>
<path d="M372.5 126.101L337.2 130.701C338 129.201 338.8 127.601 339.5 126.101H372.5Z" fill="white"/>
<path d="M471.2 278.601H321.5L324.5 264.101H471.2C486.1 264.101 498.6 253.701 501.9 239.801C506.5 258.801 492.2 278.601 471.2 278.601Z" fill="white"/>
<path d="M502 239.801C498.7 253.701 486.2 264.101 471.3 264.101H324.5H324.6L459.4 162.501L498.7 231.301C500.2 234.101 501.3 236.901 502 239.801Z" fill="white"/>
<path d="M329 51.7007C324.7 41.6007 318.6 32.6005 310.9 24.8005C303.1 17.0005 294.1 10.9007 284 6.70068C273.6 2.30068 262.5 0.100586 251.1 0.100586C239.7 0.100586 228.6 2.30068 218.2 6.70068C208.1 11.0007 199.1 17.1005 191.3 24.8005C183.5 32.6005 177.4 41.6007 173.2 51.7007C168.8 62.1007 166.6 73.2006 166.6 84.6006C166.6 96.0006 168.8 107.101 173.2 117.501C174.4 120.401 175.8 123.301 177.4 126.101C181.2 132.801 185.8 138.901 191.3 144.401C193 146.101 194.7 147.601 196.5 149.201C198.6 151.001 200.8 152.701 203 154.201C206.6 156.701 210.4 158.901 214.4 160.801C215.7 161.401 216.9 162.001 218.2 162.501C219.9 163.201 221.6 163.901 223.4 164.501C226.1 165.401 228.9 166.201 231.7 166.901L239.8 181.601L251 201.901L262.2 181.601L270.3 167.001C273.1 166.401 275.8 165.601 278.5 164.601C280.3 164.001 282.2 163.301 284 162.501C285.2 162.001 286.3 161.501 287.5 160.901C296.2 156.801 304 151.201 310.9 144.301C312.5 142.701 314 141.001 315.5 139.301C317.3 137.201 319 135.001 320.6 132.801C322.1 130.601 323.6 128.301 324.9 126.001C326.5 123.201 327.9 120.401 329.1 117.401C333.5 107.001 335.7 95.9007 335.7 84.5007C335.7 73.1007 333.4 62.1007 329 51.7007ZM251.1 53.0007C268.5 53.0007 282.7 67.1006 282.7 84.6006C282.7 102.101 268.6 116.201 251.1 116.201C233.7 116.201 219.5 102.101 219.5 84.6006C219.5 67.1006 233.7 53.0007 251.1 53.0007Z" fill="white"/>
<path d="M84.3167 375.499C87.0524 370.939 88.6939 366.455 89.241 362.048C89.241 330.404 89.241 314.613 89.241 314.674H82.8576V342.578C80.1523 339.265 77.1277 336.803 73.784 335.192C70.4403 333.55 66.7774 332.73 62.7954 332.73C55.7432 332.73 49.7094 335.298 44.6938 340.435C39.6783 345.573 37.1705 351.804 37.1705 359.13C37.1705 366.334 39.6934 372.489 44.7394 377.596C49.7854 382.703 55.8648 385.256 62.9778 385.256C67.051 385.256 70.8659 384.481 74.4224 382.931C78.0092 381.35 81.3074 378.873 84.3167 375.499ZM63.5249 379.101C59.9077 379.101 56.5791 378.219 53.5394 376.456C50.5301 374.663 48.1287 372.185 46.3353 369.024C44.5418 365.863 43.6451 362.489 43.6451 358.902C43.6451 355.376 44.5418 352.002 46.3353 348.779C48.1591 345.527 50.5909 343.019 53.6306 341.256C56.7007 339.463 59.9684 338.566 63.4337 338.566C66.9598 338.566 70.3035 339.463 73.4648 341.256C76.6262 343.019 79.058 345.436 80.7602 348.506C82.4624 351.546 83.3136 354.95 83.3136 358.719C83.3136 364.525 81.3985 369.374 77.5685 373.264C73.7384 377.155 69.0572 379.101 63.5249 379.101ZM144.549 367.428L149.929 370.301C148.197 373.796 146.16 376.608 143.819 378.736C141.479 380.864 138.849 382.49 135.931 383.615C133.013 384.709 129.715 385.256 126.037 385.256C117.89 385.256 111.522 382.596 106.932 377.277C102.342 371.927 100.047 365.893 100.047 359.175C100.047 352.822 101.993 347.168 105.884 342.214C110.808 335.891 117.419 332.73 125.718 332.73C134.199 332.73 140.992 335.967 146.099 342.442C149.716 347.001 151.54 352.685 151.571 359.494H106.659C106.78 365.331 108.635 370.118 112.221 373.857C115.808 377.566 120.231 379.42 125.49 379.42C128.043 379.42 130.521 378.979 132.922 378.098C135.323 377.186 137.36 376 139.032 374.541C140.734 373.082 142.573 370.711 144.549 367.428ZM144.549 353.977C143.698 350.542 142.452 347.807 140.81 345.77C139.169 343.703 136.995 342.046 134.29 340.8C131.584 339.523 128.742 338.885 125.763 338.885C120.869 338.885 116.659 340.466 113.133 343.627C110.58 345.937 108.65 349.387 107.343 353.977H144.549ZM188.686 339.478L184.582 343.764C181.117 340.42 177.758 338.748 174.505 338.748C172.408 338.748 170.615 339.432 169.125 340.8C167.636 342.168 166.891 343.794 166.891 345.679C166.891 347.26 167.514 348.779 168.76 350.239C169.976 351.789 172.545 353.567 176.466 355.573C181.269 358.035 184.521 360.422 186.224 362.732C187.895 365.072 188.731 367.702 188.731 370.62C188.731 374.693 187.288 378.158 184.4 381.016C181.542 383.843 177.956 385.256 173.639 385.256C170.751 385.256 167.985 384.648 165.341 383.432C162.727 382.186 160.568 380.453 158.866 378.234L162.924 373.629C166.207 377.338 169.687 379.192 173.366 379.192C175.919 379.192 178.092 378.371 179.886 376.73C181.71 375.058 182.622 373.112 182.622 370.893C182.622 369.039 182.029 367.398 180.843 365.969C179.658 364.54 176.968 362.747 172.773 360.589C168.244 358.309 165.173 356.014 163.562 353.704C161.921 351.454 161.1 348.871 161.1 345.952C161.1 342.153 162.392 339.007 164.976 336.514C167.59 333.991 170.858 332.73 174.779 332.73C179.369 332.73 184.005 334.979 188.686 339.478ZM248.553 344.402L243.447 347.594C239.039 341.697 233.02 338.748 225.391 338.748C219.281 338.748 214.204 340.709 210.161 344.63C206.149 348.551 204.143 353.324 204.143 358.947C204.143 362.595 205.07 366.045 206.924 369.298C208.778 372.52 211.317 375.012 214.539 376.775C217.761 378.538 221.378 379.42 225.391 379.42C232.777 379.42 238.796 376.502 243.447 370.665L248.553 373.994C246.152 377.581 242.93 380.362 238.887 382.338C234.874 384.283 230.285 385.256 225.117 385.256C217.244 385.256 210.693 382.748 205.465 377.733C200.267 372.717 197.668 366.623 197.668 359.449C197.668 354.585 198.884 350.087 201.316 345.952C203.778 341.788 207.122 338.551 211.347 336.241C215.603 333.9 220.375 332.73 225.664 332.73C228.947 332.73 232.124 333.231 235.194 334.234C238.294 335.237 240.924 336.56 243.082 338.201C245.24 339.812 247.064 341.879 248.553 344.402ZM284.483 332.73C292.173 332.73 298.557 335.511 303.633 341.074C308.314 346.15 310.655 352.184 310.655 359.175C310.716 376.441 310.716 385.211 310.655 385.484C307.737 385.484 305.472 385.484 303.861 385.484C303.861 385.271 303.861 381.487 303.861 374.131C300.305 380.757 293.845 384.466 284.483 385.256C276.823 385.256 270.561 382.657 265.697 377.459C260.864 372.231 258.448 366.136 258.448 359.175C258.448 352.245 260.743 346.226 265.333 341.119C270.409 335.526 276.792 332.73 284.483 332.73ZM284.483 339.022C279.163 339.022 274.589 340.998 270.759 344.949C266.928 348.901 265.013 353.673 265.013 359.267C265.013 362.884 265.986 366.364 267.932 369.708C269.907 373.052 273.236 375.879 277.917 378.189C289.65 380.803 297.994 375.468 302.949 362.185C303.223 357.929 302.767 353.856 301.581 349.965C300.73 348.202 299.56 346.53 298.07 344.949C294.332 340.998 289.802 339.022 284.483 339.022ZM320.686 362.321V356.303C321.172 353.293 321.872 350.846 322.783 348.962C324.911 343.733 327.769 339.903 331.356 337.472C334.942 335.04 337.921 333.824 340.292 333.824C342.055 333.824 343.94 334.402 345.946 335.557L342.618 340.937C339.791 339.903 336.979 340.739 334.182 343.445C331.416 346.15 329.501 349.099 328.437 352.29C327.647 355.117 327.252 360.422 327.252 368.203V385.119H320.686V362.321ZM369.428 378.143C366.267 379.845 363.166 379.982 360.127 378.554C356.418 375.727 354.655 371.699 354.837 366.471V345.314H366.692V339.797H354.792V315.631H348.317V367.565C348.256 371.213 349.092 374.556 350.825 377.596C353.682 382.429 357.573 384.983 362.498 385.256C365.112 385.347 368.091 384.755 371.434 383.478C370.918 382.201 370.249 380.423 369.428 378.143ZM423.779 367.428L429.159 370.301C427.426 373.796 425.39 376.608 423.049 378.736C420.708 380.864 418.079 382.49 415.161 383.615C412.243 384.709 408.945 385.256 405.267 385.256C397.12 385.256 390.752 382.596 386.162 377.277C381.572 371.927 379.277 365.893 379.277 359.175C379.277 352.822 381.222 347.168 385.113 342.214C390.038 335.891 396.649 332.73 404.947 332.73C413.428 332.73 420.222 335.967 425.329 342.442C428.946 347.001 430.77 352.685 430.8 359.494H385.888C386.01 365.331 387.864 370.118 391.451 373.857C395.038 377.566 399.461 379.42 404.719 379.42C407.273 379.42 409.75 378.979 412.152 378.098C414.553 377.186 416.59 376 418.261 374.541C419.964 373.082 421.803 370.711 423.779 367.428ZM423.779 353.977C422.927 350.542 421.681 347.807 420.04 345.77C418.398 343.703 416.225 342.046 413.519 340.8C410.814 339.523 407.972 338.885 404.993 338.885C400.099 338.885 395.889 340.466 392.363 343.627C389.81 345.937 387.879 349.387 386.572 353.977H423.779ZM467.915 339.478L463.812 343.764C460.346 340.42 456.988 338.748 453.735 338.748C451.638 338.748 449.844 339.432 448.355 340.8C446.865 342.168 446.121 343.794 446.121 345.679C446.121 347.26 446.744 348.779 447.99 350.239C449.206 351.789 451.774 353.567 455.696 355.573C460.498 358.035 463.751 360.422 465.453 362.732C467.125 365.072 467.961 367.702 467.961 370.62C467.961 374.693 466.517 378.158 463.629 381.016C460.772 383.843 457.185 385.256 452.869 385.256C449.981 385.256 447.215 384.648 444.57 383.432C441.956 382.186 439.798 380.453 438.096 378.234L442.154 373.629C445.437 377.338 448.917 379.192 452.595 379.192C455.149 379.192 457.322 378.371 459.115 376.73C460.939 375.058 461.851 373.112 461.851 370.893C461.851 369.039 461.258 367.398 460.073 365.969C458.887 364.54 456.197 362.747 452.002 360.589C447.473 358.309 444.403 356.014 442.792 353.704C441.151 351.454 440.33 348.871 440.33 345.952C440.33 342.153 441.622 339.007 444.205 336.514C446.82 333.991 450.087 332.73 454.009 332.73C458.599 332.73 463.234 334.979 467.915 339.478Z" fill="white"/>
</svg>
