<?xml version="1.0" encoding="UTF-8" standalone="no"?><!-- Generator: Gravit.io --><svg xmlns="http://www.w3.org/2000/svg" xmlns:xlink="http://www.w3.org/1999/xlink" style="isolation:isolate" viewBox="719 439.25 48 44.5" width="48pt" height="44.5pt"><defs><clipPath id="_clipPath_CbRWlLtHJkUOky6dlE8aMFUrebHwndDp"><rect x="719" y="439.25" width="48" height="44.5"/></clipPath></defs><g clip-path="url(#_clipPath_CbRWlLtHJkUOky6dlE8aMFUrebHwndDp)"><g><rect x="719" y="469.75" width="48" height="14" transform="matrix(1,0,0,1,0,0)" fill="none"/><rect x="726" y="474.75" width="34" height="4" transform="matrix(1,0,0,1,0,0)" fill="rgb(116,116,116)"/><rect x="709" y="459.75" width="34" height="4" transform="matrix(0,-1,1,0,264.25,1187.75)" fill="rgb(116,116,116)"/><circle vector-effect="non-scaling-stroke" cx="726" cy="476.74999999999994" r="7" fill="rgb(68,13,196)"/><rect x="743" y="459.75" width="34" height="4" transform="matrix(0,1,-1,0,1221.75,-298.25)" fill="rgb(116,116,116)"/><circle vector-effect="non-scaling-stroke" cx="760" cy="476.75" r="7" fill="rgb(68,13,196)"/><rect x="719" y="439.25" width="48" height="14" transform="matrix(1,0,0,1,0,0)" fill="none"/><rect x="726" y="444.25" width="34" height="4" transform="matrix(1,0,0,1,0,0)" fill="rgb(116,116,116)"/><circle vector-effect="non-scaling-stroke" cx="726" cy="446.2499999999999" r="7" fill="rgb(68,13,196)"/><circle vector-effect="non-scaling-stroke" cx="760" cy="446.25" r="7" fill="rgb(68,13,196)"/></g></g></svg>