<svg width="512" height="512" viewBox="0 0 512 512" fill="none" xmlns="http://www.w3.org/2000/svg">
<g clip-path="url(#clip0)">
<path d="M507.459 355.883L383.211 302.495C381.328 301.686 379.198 301.683 377.312 302.484L256 354.094L134.689 302.483C132.802 301.68 130.672 301.684 128.789 302.494L4.54102 355.883C1.78102 357.068 -0.00598494 359.785 1.50624e-05 362.789C0.00601506 365.792 1.80202 368.503 4.56502 369.679L253.062 475.398C254.001 475.797 255.001 475.997 256 475.997C256.999 475.997 257.999 475.797 258.938 475.398L507.435 369.68C510.199 368.505 511.995 365.794 512 362.79C512.006 359.785 510.219 357.068 507.459 355.883Z" fill="white"/>
<path d="M256 387.255L419.043 317.89L383.21 302.493C381.327 301.684 379.197 301.681 377.311 302.482L255.999 354.093L134.688 302.482C132.801 301.679 130.671 301.683 128.788 302.493L92.955 317.89L256 387.255Z" fill="#D6D6D6"/>
<path d="M507.459 249.636L383.211 196.248C381.328 195.439 379.198 195.436 377.312 196.237L256 247.847L134.689 196.236C132.802 195.433 130.672 195.438 128.789 196.247L4.54102 249.636C1.78102 250.821 -0.00598494 253.538 1.50624e-05 256.542C0.00601506 259.546 1.80202 262.256 4.56502 263.432L253.062 369.151C254.001 369.55 255.001 369.75 256 369.75C256.999 369.75 257.999 369.55 258.938 369.151L507.435 263.432C510.199 262.257 511.995 259.546 512 256.542C512.006 253.538 510.219 250.821 507.459 249.636Z" fill="white"/>
<path d="M256 281.008L419.043 211.643L383.21 196.246C381.327 195.437 379.197 195.434 377.311 196.235L255.999 247.846L134.688 196.235C132.801 195.432 130.671 195.437 128.788 196.246L92.955 211.643L256 281.008Z" fill="#D6D6D6"/>
<path d="M507.459 143.389L258.962 36.612C257.07 35.799 254.93 35.799 253.038 36.612L4.54102 143.389C1.78102 144.574 -0.00598494 147.291 1.50624e-05 150.295C0.00601506 153.298 1.80202 156.009 4.56502 157.185L253.062 262.904C254.001 263.303 255.001 263.503 256 263.503C256.999 263.503 257.999 263.303 258.938 262.904L507.435 157.185C510.199 156.01 511.995 153.299 512 150.295C512.006 147.291 510.219 144.574 507.459 143.389Z" fill="white"/>
</g>
<defs>
<clipPath id="clip0">
<rect width="512" height="512" fill="white"/>
</clipPath>
</defs>
</svg>
