<?xml version="1.0" encoding="UTF-8" standalone="no"?><!-- Generator: Gravit.io --><svg xmlns="http://www.w3.org/2000/svg" xmlns:xlink="http://www.w3.org/1999/xlink" style="isolation:isolate" viewBox="603.962 365.119 43 30.594" width="43pt" height="30.594pt"><defs><clipPath id="_clipPath_UY7pSPfKzkg6wnSM0exqQ2qqHaiKnF70"><rect x="603.962" y="365.119" width="43" height="30.594"/></clipPath></defs><g clip-path="url(#_clipPath_UY7pSPfKzkg6wnSM0exqQ2qqHaiKnF70)"><g><path d=" M 606.086 391.069 L 617.453 368.003 C 618.363 366.156 619.835 366.159 620.737 368.01 L 631.976 391.058 C 633.405 393.989 632.266 395.057 629.434 393.442 Q 623.66 390.15 619.102 390.15 Q 614.543 390.15 608.625 393.475 C 605.783 395.072 604.645 393.994 606.086 391.069 Z " fill="rgb(255,255,255)" vector-effect="non-scaling-stroke" stroke-width="1" stroke="rgb(68,13,196)" stroke-linejoin="miter" stroke-linecap="square" stroke-miterlimit="3"/><path d=" M 618.955 369.764 L 630.322 392.83 C 631.232 394.677 632.703 394.674 633.606 392.823 L 644.845 369.774 C 646.274 366.844 645.135 365.776 642.303 367.391 Q 636.529 370.683 631.971 370.683 Q 627.412 370.683 621.494 367.358 C 618.652 365.761 617.514 366.839 618.955 369.764 Z " fill="rgb(255,255,255)" vector-effect="non-scaling-stroke" stroke-width="1" stroke="rgb(10, 44, 48)" stroke-linejoin="miter" stroke-linecap="square" stroke-miterlimit="3"/></g></g></svg>